<svg xmlns="http://www.w3.org/2000/svg" version="1.1" xmlns:xlink="http://www.w3.org/1999/xlink" xmlns:svgjs="http://svgjs.com/svgjs" width="800px" height="800px"><svg width="800px" height="800px" fill="#000000" version="1.1" viewBox="0 0 330 330" xml:space="preserve" xmlns="http://www.w3.org/2000/svg">

	<path d="m65 330h200c8.284 0 15-6.716 15-15v-170c0-8.284-6.716-15-15-15h-15v-45c0-46.869-38.131-85-85-85s-85 38.131-85 85v45h-15c-8.284 0-15 6.716-15 15v170c0 8.284 6.716 15 15 15zm115-95.014v20.014c0 8.284-6.716 15-15 15s-15-6.716-15-15v-20.014c-6.068-4.565-10-11.824-10-19.986 0-13.785 11.215-25 25-25s25 11.215 25 25c0 8.162-3.932 15.421-10 19.986zm-70-149.99c0-30.327 24.673-55 55-55s55 24.673 55 55v45h-110v-45z"></path>

<g transform="matrix(.32227 0 0 .32227 82.5 133.65)" fill="#fff"><g fill="#fff"><path d="m499.4 250.8c-51-86.3-143.6-140.4-243.4-140.4s-192.5 54.1-243.4 140.4c-2.1 3.1-2.1 7.3 0 10.4 51 86.3 143.6 140.4 243.4 140.4s192.5-54.1 243.4-140.4c2.1-3.1 2.1-7.3 0-10.4zm-243.4 130c-90.5 0-174.8-47.8-221.6-124.8 46.8-77 131.1-124.8 221.6-124.8s174.8 47.8 221.6 124.8c-46.8 77-131.1 124.8-221.6 124.8z"></path><path d="m256 162.4c-52 0-93.6 41.6-93.6 93.6s41.6 93.6 93.6 93.6 93.6-41.6 93.6-93.6-41.6-93.6-93.6-93.6zm0 166.4c-40.6 0-72.8-32.3-72.8-72.8s32.3-72.8 72.8-72.8 72.8 32.3 72.8 72.8-32.2 72.8-72.8 72.8z"></path><path d="m256 214.4v20.8c11.4 0 20.8 9.4 20.8 20.8s-9.4 20.8-20.8 20.8-20.8-9.4-20.8-20.8h-20.8c0 22.9 18.7 41.6 41.6 41.6s41.6-18.7 41.6-41.6-18.7-41.6-41.6-41.6z"></path></g></g></svg><style>@media (prefers-color-scheme: light) { :root { filter: none; } }
@media (prefers-color-scheme: dark) { :root { filter: invert(100%); } }
</style></svg>