<?xml version="1.0" standalone="no"?>
<!DOCTYPE svg PUBLIC "-//W3C//DTD SVG 20010904//EN"
 "http://www.w3.org/TR/2001/REC-SVG-20010904/DTD/svg10.dtd">
<svg version="1.0" xmlns="http://www.w3.org/2000/svg"
 width="700.000000pt" height="700.000000pt" viewBox="0 0 700.000000 700.000000"
 preserveAspectRatio="xMidYMid meet">
<metadata>
Created by potrace 1.14, written by Peter Selinger 2001-2017
</metadata>
<g transform="translate(0.000000,700.000000) scale(0.100000,-0.100000)"
fill="#000000" stroke="none">
<path d="M3300 6989 c-424 -48 -838 -258 -1125 -572 -232 -254 -382 -555 -452
-904 -15 -76 -17 -169 -20 -680 l-4 -593 -189 0 c-166 0 -196 -3 -244 -20 -72
-27 -139 -88 -173 -158 l-28 -57 0 -1885 0 -1885 25 -50 c31 -64 91 -124 155
-155 l50 -25 2185 -3 c2434 -3 2237 -8 2335 66 32 24 61 59 84 102 l36 65 0
1885 0 1885 -28 57 c-34 70 -101 131 -173 158 -48 17 -78 20 -244 20 l-189 0
-4 593 c-4 640 -4 652 -63 855 -205 710 -813 1222 -1546 1301 -111 13 -279 12
-388 0z m402 -644 c472 -82 848 -453 945 -932 16 -78 18 -149 18 -628 l0 -540
-1165 0 -1165 0 0 535 c0 572 2 605 52 765 31 99 100 239 161 325 62 89 202
226 292 287 134 90 286 155 430 182 30 6 64 13 75 15 52 10 281 5 357 -9z m-4
-2946 c574 -62 1088 -378 1415 -869 38 -57 57 -95 57 -115 0 -22 -21 -62 -69
-133 -285 -420 -705 -707 -1197 -817 l-119 -27 -48 -53 c-68 -77 -139 -110
-237 -110 -98 0 -169 33 -237 110 l-48 53 -119 27 c-499 112 -922 404 -1209
835 -38 57 -57 95 -57 115 0 38 110 203 219 330 162 188 387 360 616 470 325
157 688 222 1033 184z"/>
<path d="M3321 3259 c-46 -5 -127 -18 -180 -29 -360 -73 -730 -288 -966 -560
-78 -89 -185 -237 -185 -255 0 -19 110 -169 189 -259 147 -167 353 -321 561
-419 134 -64 263 -107 413 -141 l27 -6 0 134 0 134 -63 46 c-107 78 -183 185
-224 314 -97 305 39 628 322 767 96 48 173 65 285 65 242 0 442 -117 563 -330
97 -172 97 -438 0 -610 -47 -83 -106 -151 -175 -202 l-68 -51 0 -134 0 -133
28 6 c394 89 728 281 973 560 79 90 189 240 189 259 0 19 -110 169 -189 259
-255 289 -634 501 -1019 567 -137 23 -361 32 -481 18z"/>
</g>
</svg>
